<svg width="130" height="98" viewBox="0 0 130 98" fill="none" xmlns="http://www.w3.org/2000/svg">
  <!-- Updated logo matching the favicon style -->
  <!-- Main outer frame shape with extended left bar -->
  <path fill-rule="evenodd" clip-rule="evenodd" d="M3.48 2.25L113.18 2.25C117.04 2.25 120.74 3.79 123.47 6.51C126.19 9.24 127.73 12.94 127.73 16.8V57.91C127.73 61.77 126.19 65.47 123.47 68.2C120.74 70.93 117.04 72.47 113.18 72.47H31.72V94.47C31.72 94.79 31.59 95.1 31.36 95.32C31.13 95.55 30.82 95.68 30.5 95.68H3.48C3.16 95.68 2.85 95.55 2.62 95.32C2.39 95.1 2.26 94.79 2.26 94.47V3.49C2.26 3.17 2.39 2.86 2.62 2.63C2.85 2.4 3.16 2.25 3.48 2.25ZM4.73 93.25H29.28V71.25C29.28 70.92 29.41 70.61 29.64 70.38C29.86 70.16 30.17 70.03 30.5 70.03H113.2C116.41 70.03 119.49 68.75 121.76 66.48C124.02 64.21 125.3 61.14 125.3 57.93V16.82C125.3 13.61 124.02 10.53 121.76 8.26C119.49 5.99 116.41 4.72 113.2 4.72H4.73V93.25ZM91.91 22.69C94.23 22.69 96.46 23.61 98.1 25.26C99.74 26.9 100.67 29.13 100.67 31.45V42.86C100.67 45.19 99.74 47.41 98.1 49.06C96.46 50.7 94.23 51.63 91.91 51.63H30.57C30.25 51.63 29.94 51.5 29.71 51.27C29.49 51.04 29.36 50.73 29.36 50.41V23.89C29.36 23.56 29.49 23.26 29.71 23.03C29.94 22.8 30.25 22.67 30.57 22.67H91.91V22.69ZM31.79 49.17H91.91C93.58 49.17 95.19 48.5 96.38 47.31C97.57 46.13 98.23 44.52 98.23 42.84V31.43C98.23 29.75 97.57 28.14 96.38 26.96C95.19 25.77 93.58 25.11 91.91 25.11H31.79V49.17Z" fill="currentColor"/>
</svg>
