<svg xmlns="http://www.w3.org/2000/svg" viewBox="0 0 32 32">
  <rect width="32" height="32" rx="6" fill="#1e293b"/>
  <g transform="translate(6, 6) scale(0.15625)">
    <path d="M113.178 2.24853C117.037 2.25121 120.737 3.785 123.465 6.51306C126.194 9.24112 127.728 12.9404 127.731 16.7984V57.9072C127.728 61.7662 126.194 65.4665 123.466 68.1962C120.738 70.9259 117.037 72.4619 113.178 72.4672H31.7184V94.4686C31.7157 94.7904 31.586 95.0981 31.3574 95.3248C31.1289 95.5514 30.82 95.6786 30.4981 95.6785H3.47946C3.15755 95.6786 2.84867 95.5514 2.6201 95.3248C2.39154 95.0981 2.26179 94.7904 2.25913 94.4686V3.48876C2.25645 3.32685 2.28604 3.16603 2.34617 3.01567C2.4063 2.86531 2.49576 2.72842 2.60935 2.61298C2.72293 2.49754 2.85837 2.40587 3.00775 2.34329C3.15714 2.28072 3.31749 2.24851 3.47946 2.24853H113.178ZM4.73004 93.2485H29.2778V71.2472C29.2778 70.9236 29.4063 70.6133 29.6352 70.3845C29.864 70.1557 30.1744 70.0271 30.4981 70.0271H113.198C116.408 70.0271 119.486 68.7523 121.756 66.4832C124.025 64.2141 125.3 61.1365 125.3 57.9274V16.8186C125.3 13.6096 124.025 10.532 121.756 8.26282C119.486 5.99369 116.408 4.71889 113.198 4.71889H4.73004V93.2687V93.2485ZM91.9077 22.687C94.2313 22.6896 96.4589 23.6137 98.1019 25.2563C99.7449 26.899 100.669 29.1261 100.672 31.4492V42.8633C100.669 45.1863 99.7449 47.4135 98.1019 49.0561C96.4589 50.6988 94.2313 51.6228 91.9077 51.6255H30.5687C30.2468 51.6228 29.939 51.4931 29.7123 51.2646C29.4856 51.0361 29.3584 50.7272 29.3584 50.4054V23.8869C29.3584 23.565 29.4856 23.2562 29.7123 23.0277C29.939 22.7992 30.2468 22.6695 30.5687 22.6668H91.9077V22.687ZM31.789 49.1652H91.9077C93.5848 49.1652 95.1932 48.4991 96.3791 47.3135C97.565 46.1279 98.2312 44.5198 98.2312 42.8431V31.429C98.2312 29.7523 97.565 28.1442 96.3791 26.9586C95.1932 25.773 93.5848 25.1069 91.9077 25.1069H31.789V49.1652Z" fill="#60a5fa"/>
  </g>
</svg>