<svg width="512" height="512" viewBox="0 0 512 512" fill="none" xmlns="http://www.w3.org/2000/svg">
  <!-- Safari pinned tab - single color silhouette -->
  
  <!-- Main outer shape with inner cutout -->
  <path fill-rule="evenodd" clip-rule="evenodd" d="M88 48 L424 48 C458 48 486 76 486 110 L486 282 C486 316 458 344 424 344 L136 344 L136 448 C136 459 127 468 116 468 L68 468 C57 468 48 459 48 448 L48 80 C48 63 63 48 80 48 L88 48 Z M88 88 L88 304 L424 304 C435 304 446 293 446 282 L446 110 C446 99 435 88 424 88 L88 88 Z" fill="black"/>
  
  <!-- Inner rectangle -->
  <rect x="152" y="136" width="232" height="120" rx="8" fill="black"/>
</svg>
